<mxfile host="Electron" agent="Mozilla/5.0 (X11; Linux x86_64) AppleWebKit/537.36 (KHTML, like Gecko) draw.io/24.7.8 Chrome/128.0.6613.36 Electron/32.0.1 Safari/537.36" version="24.7.8" pages="4">
  <diagram name="Регистрация" id="GYHY9nwNA-UFzTmqW8Kh">
    <mxGraphModel dx="882" dy="553" grid="1" gridSize="10" guides="1" tooltips="1" connect="1" arrows="1" fold="1" page="1" pageScale="1" pageWidth="1169" pageHeight="827" math="0" shadow="0">
      <root>
        <mxCell id="0" />
        <mxCell id="1" parent="0" />
        <mxCell id="Hl7atsJHR72F6YeB8nvx-2" value="" style="shape=umlLifeline;perimeter=lifelinePerimeter;whiteSpace=wrap;html=1;container=1;dropTarget=0;collapsible=0;recursiveResize=0;outlineConnect=0;portConstraint=eastwest;newEdgeStyle={&quot;curved&quot;:0,&quot;rounded&quot;:0};participant=umlActor;" vertex="1" parent="1">
          <mxGeometry x="300" y="260" width="20" height="250" as="geometry" />
        </mxCell>
        <mxCell id="Hl7atsJHR72F6YeB8nvx-7" value="" style="html=1;points=[[0,0,0,0,5],[0,1,0,0,-5],[1,0,0,0,5],[1,1,0,0,-5]];perimeter=orthogonalPerimeter;outlineConnect=0;targetShapes=umlLifeline;portConstraint=eastwest;newEdgeStyle={&quot;curved&quot;:0,&quot;rounded&quot;:0};" vertex="1" parent="Hl7atsJHR72F6YeB8nvx-2">
          <mxGeometry x="5" y="90" width="10" height="140" as="geometry" />
        </mxCell>
        <mxCell id="Hl7atsJHR72F6YeB8nvx-3" value="Сервис регистрации" style="shape=umlLifeline;perimeter=lifelinePerimeter;whiteSpace=wrap;html=1;container=1;dropTarget=0;collapsible=0;recursiveResize=0;outlineConnect=0;portConstraint=eastwest;newEdgeStyle={&quot;curved&quot;:0,&quot;rounded&quot;:0};" vertex="1" parent="1">
          <mxGeometry x="720" y="260" width="100" height="260" as="geometry" />
        </mxCell>
        <mxCell id="Hl7atsJHR72F6YeB8nvx-9" value="" style="html=1;points=[[0,0,0,0,5],[0,1,0,0,-5],[1,0,0,0,5],[1,1,0,0,-5]];perimeter=orthogonalPerimeter;outlineConnect=0;targetShapes=umlLifeline;portConstraint=eastwest;newEdgeStyle={&quot;curved&quot;:0,&quot;rounded&quot;:0};" vertex="1" parent="Hl7atsJHR72F6YeB8nvx-3">
          <mxGeometry x="45" y="90" width="10" height="140" as="geometry" />
        </mxCell>
        <mxCell id="Hl7atsJHR72F6YeB8nvx-10" value="Логин / пароль / email" style="html=1;verticalAlign=bottom;endArrow=block;curved=0;rounded=0;exitX=1;exitY=0;exitDx=0;exitDy=5;exitPerimeter=0;" edge="1" target="LUGnBezZJKdx3XFtlVgT-2" parent="1" source="Hl7atsJHR72F6YeB8nvx-7">
          <mxGeometry relative="1" as="geometry">
            <mxPoint x="470" y="355" as="sourcePoint" />
          </mxGeometry>
        </mxCell>
        <mxCell id="Hl7atsJHR72F6YeB8nvx-11" value="Подтверждение" style="html=1;verticalAlign=bottom;endArrow=open;dashed=1;endSize=8;curved=0;rounded=0;exitX=0;exitY=1;exitDx=0;exitDy=-5;" edge="1" source="Hl7atsJHR72F6YeB8nvx-9" parent="1" target="LUGnBezZJKdx3XFtlVgT-2">
          <mxGeometry relative="1" as="geometry">
            <mxPoint x="400" y="425" as="targetPoint" />
          </mxGeometry>
        </mxCell>
        <mxCell id="LUGnBezZJKdx3XFtlVgT-1" value="Web browser" style="shape=umlLifeline;perimeter=lifelinePerimeter;whiteSpace=wrap;html=1;container=1;dropTarget=0;collapsible=0;recursiveResize=0;outlineConnect=0;portConstraint=eastwest;newEdgeStyle={&quot;curved&quot;:0,&quot;rounded&quot;:0};" vertex="1" parent="1">
          <mxGeometry x="480" y="260" width="100" height="260" as="geometry" />
        </mxCell>
        <mxCell id="LUGnBezZJKdx3XFtlVgT-2" value="" style="html=1;points=[[0,0,0,0,5],[0,1,0,0,-5],[1,0,0,0,5],[1,1,0,0,-5]];perimeter=orthogonalPerimeter;outlineConnect=0;targetShapes=umlLifeline;portConstraint=eastwest;newEdgeStyle={&quot;curved&quot;:0,&quot;rounded&quot;:0};" vertex="1" parent="LUGnBezZJKdx3XFtlVgT-1">
          <mxGeometry x="45" y="90" width="10" height="150" as="geometry" />
        </mxCell>
        <mxCell id="LUGnBezZJKdx3XFtlVgT-3" value="Регистрация" style="html=1;verticalAlign=bottom;endArrow=block;curved=0;rounded=0;entryX=0.05;entryY=0.098;entryDx=0;entryDy=0;entryPerimeter=0;" edge="1" parent="1" source="LUGnBezZJKdx3XFtlVgT-2" target="Hl7atsJHR72F6YeB8nvx-9">
          <mxGeometry relative="1" as="geometry">
            <mxPoint x="535" y="370" as="sourcePoint" />
            <mxPoint x="745" y="370" as="targetPoint" />
          </mxGeometry>
        </mxCell>
        <mxCell id="1Uav7DDM2TR7S0-lUSlo-1" value="Регистрация пользователя" style="text;html=1;align=center;verticalAlign=middle;whiteSpace=wrap;rounded=0;fontSize=16;fontStyle=1" vertex="1" parent="1">
          <mxGeometry x="340" y="170" width="450" height="30" as="geometry" />
        </mxCell>
      </root>
    </mxGraphModel>
  </diagram>
  <diagram name="Аутентификация" id="GzfwE3dVhhac4EaTws6A">
    <mxGraphModel dx="882" dy="553" grid="1" gridSize="10" guides="1" tooltips="1" connect="1" arrows="1" fold="1" page="1" pageScale="1" pageWidth="1169" pageHeight="827" math="0" shadow="0">
      <root>
        <mxCell id="lit4zYIjfMYFSlTSaN1d-0" />
        <mxCell id="lit4zYIjfMYFSlTSaN1d-1" parent="lit4zYIjfMYFSlTSaN1d-0" />
        <mxCell id="llDzwy62LoAv9PZDflJN-0" value="" style="shape=umlLifeline;perimeter=lifelinePerimeter;whiteSpace=wrap;html=1;container=1;dropTarget=0;collapsible=0;recursiveResize=0;outlineConnect=0;portConstraint=eastwest;newEdgeStyle={&quot;curved&quot;:0,&quot;rounded&quot;:0};participant=umlActor;" vertex="1" parent="lit4zYIjfMYFSlTSaN1d-1">
          <mxGeometry x="270" y="230" width="20" height="250" as="geometry" />
        </mxCell>
        <mxCell id="llDzwy62LoAv9PZDflJN-1" value="" style="html=1;points=[[0,0,0,0,5],[0,1,0,0,-5],[1,0,0,0,5],[1,1,0,0,-5]];perimeter=orthogonalPerimeter;outlineConnect=0;targetShapes=umlLifeline;portConstraint=eastwest;newEdgeStyle={&quot;curved&quot;:0,&quot;rounded&quot;:0};" vertex="1" parent="llDzwy62LoAv9PZDflJN-0">
          <mxGeometry x="5" y="90" width="10" height="140" as="geometry" />
        </mxCell>
        <mxCell id="llDzwy62LoAv9PZDflJN-2" value="Сервис регистрации" style="shape=umlLifeline;perimeter=lifelinePerimeter;whiteSpace=wrap;html=1;container=1;dropTarget=0;collapsible=0;recursiveResize=0;outlineConnect=0;portConstraint=eastwest;newEdgeStyle={&quot;curved&quot;:0,&quot;rounded&quot;:0};" vertex="1" parent="lit4zYIjfMYFSlTSaN1d-1">
          <mxGeometry x="690" y="230" width="100" height="260" as="geometry" />
        </mxCell>
        <mxCell id="llDzwy62LoAv9PZDflJN-3" value="" style="html=1;points=[[0,0,0,0,5],[0,1,0,0,-5],[1,0,0,0,5],[1,1,0,0,-5]];perimeter=orthogonalPerimeter;outlineConnect=0;targetShapes=umlLifeline;portConstraint=eastwest;newEdgeStyle={&quot;curved&quot;:0,&quot;rounded&quot;:0};" vertex="1" parent="llDzwy62LoAv9PZDflJN-2">
          <mxGeometry x="45" y="90" width="10" height="140" as="geometry" />
        </mxCell>
        <mxCell id="llDzwy62LoAv9PZDflJN-4" value="Логин / пароль" style="html=1;verticalAlign=bottom;endArrow=block;curved=0;rounded=0;exitX=1;exitY=0;exitDx=0;exitDy=5;exitPerimeter=0;" edge="1" parent="lit4zYIjfMYFSlTSaN1d-1" source="llDzwy62LoAv9PZDflJN-1" target="llDzwy62LoAv9PZDflJN-7">
          <mxGeometry x="-0.0016" relative="1" as="geometry">
            <mxPoint x="440" y="325" as="sourcePoint" />
            <mxPoint as="offset" />
          </mxGeometry>
        </mxCell>
        <mxCell id="llDzwy62LoAv9PZDflJN-5" value="Подтверждение" style="html=1;verticalAlign=bottom;endArrow=open;dashed=1;endSize=8;curved=0;rounded=0;exitX=0;exitY=1;exitDx=0;exitDy=-5;" edge="1" parent="lit4zYIjfMYFSlTSaN1d-1" source="llDzwy62LoAv9PZDflJN-3" target="llDzwy62LoAv9PZDflJN-7">
          <mxGeometry relative="1" as="geometry">
            <mxPoint x="370" y="395" as="targetPoint" />
          </mxGeometry>
        </mxCell>
        <mxCell id="llDzwy62LoAv9PZDflJN-6" value="Web browser" style="shape=umlLifeline;perimeter=lifelinePerimeter;whiteSpace=wrap;html=1;container=1;dropTarget=0;collapsible=0;recursiveResize=0;outlineConnect=0;portConstraint=eastwest;newEdgeStyle={&quot;curved&quot;:0,&quot;rounded&quot;:0};" vertex="1" parent="lit4zYIjfMYFSlTSaN1d-1">
          <mxGeometry x="450" y="230" width="100" height="260" as="geometry" />
        </mxCell>
        <mxCell id="llDzwy62LoAv9PZDflJN-7" value="" style="html=1;points=[[0,0,0,0,5],[0,1,0,0,-5],[1,0,0,0,5],[1,1,0,0,-5]];perimeter=orthogonalPerimeter;outlineConnect=0;targetShapes=umlLifeline;portConstraint=eastwest;newEdgeStyle={&quot;curved&quot;:0,&quot;rounded&quot;:0};" vertex="1" parent="llDzwy62LoAv9PZDflJN-6">
          <mxGeometry x="45" y="90" width="10" height="150" as="geometry" />
        </mxCell>
        <mxCell id="llDzwy62LoAv9PZDflJN-8" value="Аутентификация" style="html=1;verticalAlign=bottom;endArrow=block;curved=0;rounded=0;entryX=0.05;entryY=0.098;entryDx=0;entryDy=0;entryPerimeter=0;" edge="1" parent="lit4zYIjfMYFSlTSaN1d-1" source="llDzwy62LoAv9PZDflJN-7" target="llDzwy62LoAv9PZDflJN-3">
          <mxGeometry relative="1" as="geometry">
            <mxPoint x="505" y="340" as="sourcePoint" />
            <mxPoint x="715" y="340" as="targetPoint" />
          </mxGeometry>
        </mxCell>
        <mxCell id="wiDkKFISsDK_y_rx4AWw-0" value="Аутентификация пользователя" style="text;html=1;align=center;verticalAlign=middle;whiteSpace=wrap;rounded=0;fontSize=16;fontStyle=1" vertex="1" parent="lit4zYIjfMYFSlTSaN1d-1">
          <mxGeometry x="310" y="150" width="450" height="30" as="geometry" />
        </mxCell>
      </root>
    </mxGraphModel>
  </diagram>
  <diagram name="Размещение " id="7uuC7go99Izr6OoxWnLV">
    <mxGraphModel dx="962" dy="603" grid="1" gridSize="10" guides="1" tooltips="1" connect="1" arrows="1" fold="1" page="1" pageScale="1" pageWidth="1169" pageHeight="827" math="0" shadow="0">
      <root>
        <mxCell id="-dvv2s1GR5FezQWf_1XZ-0" />
        <mxCell id="-dvv2s1GR5FezQWf_1XZ-1" parent="-dvv2s1GR5FezQWf_1XZ-0" />
        <mxCell id="-dvv2s1GR5FezQWf_1XZ-2" value="" style="shape=umlLifeline;perimeter=lifelinePerimeter;whiteSpace=wrap;html=1;container=1;dropTarget=0;collapsible=0;recursiveResize=0;outlineConnect=0;portConstraint=eastwest;newEdgeStyle={&quot;curved&quot;:0,&quot;rounded&quot;:0};participant=umlActor;" vertex="1" parent="-dvv2s1GR5FezQWf_1XZ-1">
          <mxGeometry x="325" y="310" width="20" height="250" as="geometry" />
        </mxCell>
        <mxCell id="-dvv2s1GR5FezQWf_1XZ-3" value="" style="html=1;points=[[0,0,0,0,5],[0,1,0,0,-5],[1,0,0,0,5],[1,1,0,0,-5]];perimeter=orthogonalPerimeter;outlineConnect=0;targetShapes=umlLifeline;portConstraint=eastwest;newEdgeStyle={&quot;curved&quot;:0,&quot;rounded&quot;:0};" vertex="1" parent="-dvv2s1GR5FezQWf_1XZ-2">
          <mxGeometry x="5" y="90" width="10" height="140" as="geometry" />
        </mxCell>
        <mxCell id="-dvv2s1GR5FezQWf_1XZ-4" value="Контент сервис" style="shape=umlLifeline;perimeter=lifelinePerimeter;whiteSpace=wrap;html=1;container=1;dropTarget=0;collapsible=0;recursiveResize=0;outlineConnect=0;portConstraint=eastwest;newEdgeStyle={&quot;curved&quot;:0,&quot;rounded&quot;:0};" vertex="1" parent="-dvv2s1GR5FezQWf_1XZ-1">
          <mxGeometry x="750" y="310" width="100" height="260" as="geometry" />
        </mxCell>
        <mxCell id="-dvv2s1GR5FezQWf_1XZ-5" value="" style="html=1;points=[[0,0,0,0,5],[0,1,0,0,-5],[1,0,0,0,5],[1,1,0,0,-5]];perimeter=orthogonalPerimeter;outlineConnect=0;targetShapes=umlLifeline;portConstraint=eastwest;newEdgeStyle={&quot;curved&quot;:0,&quot;rounded&quot;:0};" vertex="1" parent="-dvv2s1GR5FezQWf_1XZ-4">
          <mxGeometry x="45" y="90" width="10" height="140" as="geometry" />
        </mxCell>
        <mxCell id="SESfyBjAQ1JTThE_2ByJ-1" value="" style="html=1;points=[[0,0,0,0,5],[0,1,0,0,-5],[1,0,0,0,5],[1,1,0,0,-5]];perimeter=orthogonalPerimeter;outlineConnect=0;targetShapes=umlLifeline;portConstraint=eastwest;newEdgeStyle={&quot;curved&quot;:0,&quot;rounded&quot;:0};" vertex="1" parent="-dvv2s1GR5FezQWf_1XZ-4">
          <mxGeometry x="55" y="140" width="10" height="40" as="geometry" />
        </mxCell>
        <mxCell id="SESfyBjAQ1JTThE_2ByJ-2" value="валидация&lt;div&gt;сохранение&lt;/div&gt;" style="html=1;align=left;spacingLeft=2;endArrow=block;rounded=0;edgeStyle=orthogonalEdgeStyle;curved=0;rounded=0;exitX=0.97;exitY=0.223;exitDx=0;exitDy=0;exitPerimeter=0;" edge="1" target="SESfyBjAQ1JTThE_2ByJ-1" parent="-dvv2s1GR5FezQWf_1XZ-4" source="-dvv2s1GR5FezQWf_1XZ-5">
          <mxGeometry relative="1" as="geometry">
            <mxPoint x="60" y="120" as="sourcePoint" />
            <Array as="points">
              <mxPoint x="55" y="120" />
              <mxPoint x="90" y="120" />
              <mxPoint x="90" y="160" />
            </Array>
          </mxGeometry>
        </mxCell>
        <mxCell id="-dvv2s1GR5FezQWf_1XZ-6" value="Заголовок, Контент" style="html=1;verticalAlign=bottom;endArrow=block;curved=0;rounded=0;exitX=1;exitY=0;exitDx=0;exitDy=5;exitPerimeter=0;" edge="1" parent="-dvv2s1GR5FezQWf_1XZ-1" source="-dvv2s1GR5FezQWf_1XZ-3" target="-dvv2s1GR5FezQWf_1XZ-9">
          <mxGeometry x="-0.0016" relative="1" as="geometry">
            <mxPoint x="495" y="405" as="sourcePoint" />
            <mxPoint as="offset" />
          </mxGeometry>
        </mxCell>
        <mxCell id="-dvv2s1GR5FezQWf_1XZ-7" value="Подтверждение" style="html=1;verticalAlign=bottom;endArrow=open;dashed=1;endSize=8;curved=0;rounded=0;exitX=0;exitY=1;exitDx=0;exitDy=-5;" edge="1" parent="-dvv2s1GR5FezQWf_1XZ-1" source="-dvv2s1GR5FezQWf_1XZ-5" target="-dvv2s1GR5FezQWf_1XZ-9">
          <mxGeometry relative="1" as="geometry">
            <mxPoint x="425" y="475" as="targetPoint" />
          </mxGeometry>
        </mxCell>
        <mxCell id="-dvv2s1GR5FezQWf_1XZ-8" value="Web browser" style="shape=umlLifeline;perimeter=lifelinePerimeter;whiteSpace=wrap;html=1;container=1;dropTarget=0;collapsible=0;recursiveResize=0;outlineConnect=0;portConstraint=eastwest;newEdgeStyle={&quot;curved&quot;:0,&quot;rounded&quot;:0};" vertex="1" parent="-dvv2s1GR5FezQWf_1XZ-1">
          <mxGeometry x="505" y="310" width="100" height="260" as="geometry" />
        </mxCell>
        <mxCell id="-dvv2s1GR5FezQWf_1XZ-9" value="" style="html=1;points=[[0,0,0,0,5],[0,1,0,0,-5],[1,0,0,0,5],[1,1,0,0,-5]];perimeter=orthogonalPerimeter;outlineConnect=0;targetShapes=umlLifeline;portConstraint=eastwest;newEdgeStyle={&quot;curved&quot;:0,&quot;rounded&quot;:0};" vertex="1" parent="-dvv2s1GR5FezQWf_1XZ-8">
          <mxGeometry x="45" y="90" width="10" height="150" as="geometry" />
        </mxCell>
        <mxCell id="-dvv2s1GR5FezQWf_1XZ-10" value="Заголовок, Контент" style="html=1;verticalAlign=bottom;endArrow=block;curved=0;rounded=0;entryX=0.05;entryY=0.098;entryDx=0;entryDy=0;entryPerimeter=0;" edge="1" parent="-dvv2s1GR5FezQWf_1XZ-1" source="-dvv2s1GR5FezQWf_1XZ-9" target="-dvv2s1GR5FezQWf_1XZ-5">
          <mxGeometry relative="1" as="geometry">
            <mxPoint x="560" y="420" as="sourcePoint" />
            <mxPoint x="770" y="420" as="targetPoint" />
          </mxGeometry>
        </mxCell>
        <mxCell id="SESfyBjAQ1JTThE_2ByJ-0" value="Размещение контента" style="text;html=1;align=center;verticalAlign=middle;whiteSpace=wrap;rounded=0;fontSize=16;fontStyle=1" vertex="1" parent="-dvv2s1GR5FezQWf_1XZ-1">
          <mxGeometry x="340" y="230" width="450" height="30" as="geometry" />
        </mxCell>
        <mxCell id="DhllMf2FX4dlX_zjhJne-0" value="Сервис условий" style="shape=umlLifeline;perimeter=lifelinePerimeter;whiteSpace=wrap;html=1;container=1;dropTarget=0;collapsible=0;recursiveResize=0;outlineConnect=0;portConstraint=eastwest;newEdgeStyle={&quot;curved&quot;:0,&quot;rounded&quot;:0};" vertex="1" parent="-dvv2s1GR5FezQWf_1XZ-1">
          <mxGeometry x="970" y="310" width="100" height="260" as="geometry" />
        </mxCell>
        <mxCell id="DhllMf2FX4dlX_zjhJne-1" value="" style="html=1;points=[[0,0,0,0,5],[0,1,0,0,-5],[1,0,0,0,5],[1,1,0,0,-5]];perimeter=orthogonalPerimeter;outlineConnect=0;targetShapes=umlLifeline;portConstraint=eastwest;newEdgeStyle={&quot;curved&quot;:0,&quot;rounded&quot;:0};" vertex="1" parent="DhllMf2FX4dlX_zjhJne-0">
          <mxGeometry x="45" y="90" width="10" height="140" as="geometry" />
        </mxCell>
        <mxCell id="DhllMf2FX4dlX_zjhJne-4" value="Заголовок, запрет публикации" style="html=1;verticalAlign=bottom;endArrow=block;curved=0;rounded=0;exitX=1;exitY=1;exitDx=0;exitDy=-5;exitPerimeter=0;" edge="1" parent="-dvv2s1GR5FezQWf_1XZ-1" source="-dvv2s1GR5FezQWf_1XZ-5" target="DhllMf2FX4dlX_zjhJne-1">
          <mxGeometry relative="1" as="geometry">
            <mxPoint x="760" y="510" as="sourcePoint" />
            <mxPoint x="996" y="510" as="targetPoint" />
          </mxGeometry>
        </mxCell>
      </root>
    </mxGraphModel>
  </diagram>
  <diagram name="Условия" id="s5ECtLfF2VfzdsP3Ht7z">
    <mxGraphModel dx="2116" dy="1326" grid="1" gridSize="10" guides="1" tooltips="1" connect="1" arrows="1" fold="1" page="1" pageScale="1" pageWidth="1169" pageHeight="827" math="0" shadow="0">
      <root>
        <mxCell id="320GlODoI-HYAJuGPUnt-0" />
        <mxCell id="320GlODoI-HYAJuGPUnt-1" parent="320GlODoI-HYAJuGPUnt-0" />
        <mxCell id="320GlODoI-HYAJuGPUnt-2" value="" style="shape=umlLifeline;perimeter=lifelinePerimeter;whiteSpace=wrap;html=1;container=1;dropTarget=0;collapsible=0;recursiveResize=0;outlineConnect=0;portConstraint=eastwest;newEdgeStyle={&quot;curved&quot;:0,&quot;rounded&quot;:0};participant=umlActor;" vertex="1" parent="320GlODoI-HYAJuGPUnt-1">
          <mxGeometry x="322" y="300" width="20" height="300" as="geometry" />
        </mxCell>
        <mxCell id="320GlODoI-HYAJuGPUnt-3" value="" style="html=1;points=[[0,0,0,0,5],[0,1,0,0,-5],[1,0,0,0,5],[1,1,0,0,-5]];perimeter=orthogonalPerimeter;outlineConnect=0;targetShapes=umlLifeline;portConstraint=eastwest;newEdgeStyle={&quot;curved&quot;:0,&quot;rounded&quot;:0};" vertex="1" parent="320GlODoI-HYAJuGPUnt-2">
          <mxGeometry x="5" y="90" width="10" height="70" as="geometry" />
        </mxCell>
        <mxCell id="PE5ixMAiP-Ev61yt_bIu-0" value="" style="html=1;points=[[0,0,0,0,5],[0,1,0,0,-5],[1,0,0,0,5],[1,1,0,0,-5]];perimeter=orthogonalPerimeter;outlineConnect=0;targetShapes=umlLifeline;portConstraint=eastwest;newEdgeStyle={&quot;curved&quot;:0,&quot;rounded&quot;:0};" vertex="1" parent="320GlODoI-HYAJuGPUnt-2">
          <mxGeometry x="5" y="200" width="10" height="70" as="geometry" />
        </mxCell>
        <mxCell id="320GlODoI-HYAJuGPUnt-4" value="Сервис условий" style="shape=umlLifeline;perimeter=lifelinePerimeter;whiteSpace=wrap;html=1;container=1;dropTarget=0;collapsible=0;recursiveResize=0;outlineConnect=0;portConstraint=eastwest;newEdgeStyle={&quot;curved&quot;:0,&quot;rounded&quot;:0};" vertex="1" parent="320GlODoI-HYAJuGPUnt-1">
          <mxGeometry x="747" y="300" width="100" height="300" as="geometry" />
        </mxCell>
        <mxCell id="320GlODoI-HYAJuGPUnt-5" value="" style="html=1;points=[[0,0,0,0,5],[0,1,0,0,-5],[1,0,0,0,5],[1,1,0,0,-5]];perimeter=orthogonalPerimeter;outlineConnect=0;targetShapes=umlLifeline;portConstraint=eastwest;newEdgeStyle={&quot;curved&quot;:0,&quot;rounded&quot;:0};" vertex="1" parent="320GlODoI-HYAJuGPUnt-4">
          <mxGeometry x="45" y="90" width="10" height="70" as="geometry" />
        </mxCell>
        <mxCell id="PE5ixMAiP-Ev61yt_bIu-2" value="" style="html=1;points=[[0,0,0,0,5],[0,1,0,0,-5],[1,0,0,0,5],[1,1,0,0,-5]];perimeter=orthogonalPerimeter;outlineConnect=0;targetShapes=umlLifeline;portConstraint=eastwest;newEdgeStyle={&quot;curved&quot;:0,&quot;rounded&quot;:0};" vertex="1" parent="320GlODoI-HYAJuGPUnt-4">
          <mxGeometry x="45" y="200" width="10" height="70" as="geometry" />
        </mxCell>
        <mxCell id="320GlODoI-HYAJuGPUnt-8" value="Просмотр текущих условий" style="html=1;verticalAlign=bottom;endArrow=block;curved=0;rounded=0;exitX=1;exitY=0;exitDx=0;exitDy=5;exitPerimeter=0;" edge="1" parent="320GlODoI-HYAJuGPUnt-1" source="320GlODoI-HYAJuGPUnt-3" target="320GlODoI-HYAJuGPUnt-11">
          <mxGeometry x="-0.0016" relative="1" as="geometry">
            <mxPoint x="492" y="395" as="sourcePoint" />
            <mxPoint as="offset" />
          </mxGeometry>
        </mxCell>
        <mxCell id="320GlODoI-HYAJuGPUnt-9" value="Заголовки, условия публикации" style="html=1;verticalAlign=bottom;endArrow=open;dashed=1;endSize=8;curved=0;rounded=0;exitX=0;exitY=1;exitDx=0;exitDy=-5;exitPerimeter=0;" edge="1" parent="320GlODoI-HYAJuGPUnt-1" source="320GlODoI-HYAJuGPUnt-5" target="320GlODoI-HYAJuGPUnt-11">
          <mxGeometry relative="1" as="geometry">
            <mxPoint x="422" y="465" as="targetPoint" />
          </mxGeometry>
        </mxCell>
        <mxCell id="320GlODoI-HYAJuGPUnt-10" value="Web browser" style="shape=umlLifeline;perimeter=lifelinePerimeter;whiteSpace=wrap;html=1;container=1;dropTarget=0;collapsible=0;recursiveResize=0;outlineConnect=0;portConstraint=eastwest;newEdgeStyle={&quot;curved&quot;:0,&quot;rounded&quot;:0};" vertex="1" parent="320GlODoI-HYAJuGPUnt-1">
          <mxGeometry x="502" y="300" width="100" height="300" as="geometry" />
        </mxCell>
        <mxCell id="320GlODoI-HYAJuGPUnt-11" value="" style="html=1;points=[[0,0,0,0,5],[0,1,0,0,-5],[1,0,0,0,5],[1,1,0,0,-5]];perimeter=orthogonalPerimeter;outlineConnect=0;targetShapes=umlLifeline;portConstraint=eastwest;newEdgeStyle={&quot;curved&quot;:0,&quot;rounded&quot;:0};" vertex="1" parent="320GlODoI-HYAJuGPUnt-10">
          <mxGeometry x="45" y="90" width="10" height="70" as="geometry" />
        </mxCell>
        <mxCell id="PE5ixMAiP-Ev61yt_bIu-1" value="" style="html=1;points=[[0,0,0,0,5],[0,1,0,0,-5],[1,0,0,0,5],[1,1,0,0,-5]];perimeter=orthogonalPerimeter;outlineConnect=0;targetShapes=umlLifeline;portConstraint=eastwest;newEdgeStyle={&quot;curved&quot;:0,&quot;rounded&quot;:0};" vertex="1" parent="320GlODoI-HYAJuGPUnt-10">
          <mxGeometry x="45" y="200" width="10" height="70" as="geometry" />
        </mxCell>
        <mxCell id="320GlODoI-HYAJuGPUnt-12" value="Запрос условий публикации" style="html=1;verticalAlign=bottom;endArrow=block;curved=0;rounded=0;entryX=0.05;entryY=0.098;entryDx=0;entryDy=0;entryPerimeter=0;" edge="1" parent="320GlODoI-HYAJuGPUnt-1" source="320GlODoI-HYAJuGPUnt-11" target="320GlODoI-HYAJuGPUnt-5">
          <mxGeometry relative="1" as="geometry">
            <mxPoint x="557" y="410" as="sourcePoint" />
            <mxPoint x="767" y="410" as="targetPoint" />
          </mxGeometry>
        </mxCell>
        <mxCell id="320GlODoI-HYAJuGPUnt-13" value="Определение условий размещения контента" style="text;html=1;align=center;verticalAlign=middle;whiteSpace=wrap;rounded=0;fontSize=16;fontStyle=1" vertex="1" parent="320GlODoI-HYAJuGPUnt-1">
          <mxGeometry x="360" y="200" width="450" height="30" as="geometry" />
        </mxCell>
        <mxCell id="PE5ixMAiP-Ev61yt_bIu-3" value="Ввод новых условий" style="html=1;verticalAlign=bottom;endArrow=block;curved=0;rounded=0;exitX=1;exitY=0;exitDx=0;exitDy=5;exitPerimeter=0;" edge="1" parent="320GlODoI-HYAJuGPUnt-1" source="PE5ixMAiP-Ev61yt_bIu-0" target="PE5ixMAiP-Ev61yt_bIu-1">
          <mxGeometry x="-0.0016" relative="1" as="geometry">
            <mxPoint x="347" y="405" as="sourcePoint" />
            <mxPoint x="557" y="405" as="targetPoint" />
            <mxPoint as="offset" />
          </mxGeometry>
        </mxCell>
        <mxCell id="PE5ixMAiP-Ev61yt_bIu-4" value="Сохранение условий публикации" style="html=1;verticalAlign=bottom;endArrow=block;curved=0;rounded=0;entryX=0;entryY=0;entryDx=0;entryDy=5;entryPerimeter=0;" edge="1" parent="320GlODoI-HYAJuGPUnt-1" source="PE5ixMAiP-Ev61yt_bIu-1" target="PE5ixMAiP-Ev61yt_bIu-2">
          <mxGeometry relative="1" as="geometry">
            <mxPoint x="567" y="510" as="sourcePoint" />
            <mxPoint x="803" y="510" as="targetPoint" />
          </mxGeometry>
        </mxCell>
        <mxCell id="PE5ixMAiP-Ev61yt_bIu-5" value="Подтверждение новых усорвий" style="html=1;verticalAlign=bottom;endArrow=open;dashed=1;endSize=8;curved=0;rounded=0;entryX=1;entryY=1;entryDx=0;entryDy=-5;entryPerimeter=0;" edge="1" parent="320GlODoI-HYAJuGPUnt-1" source="PE5ixMAiP-Ev61yt_bIu-2" target="PE5ixMAiP-Ev61yt_bIu-1">
          <mxGeometry relative="1" as="geometry">
            <mxPoint x="549.5" y="560" as="targetPoint" />
            <mxPoint x="784.5" y="560" as="sourcePoint" />
          </mxGeometry>
        </mxCell>
      </root>
    </mxGraphModel>
  </diagram>
</mxfile>
